<svg width="1640" height="1443" xmlns="http://www.w3.org/2000/svg" xmlns:xlink="http://www.w3.org/1999/xlink" xml:space="preserve" overflow="hidden"><g transform="translate(-1380 -516)"><path d="M3002.66 1907.21C3002.66 1900.15 3001.62 1894.07 2999.6 1889.01 2996.27 1880.83 2990.68 1876.75 2982.82 1876.75 2980.21 1876.75 2978.54 1877.3 2977.76 1878.4 2977.25 1879.12 2976.96 1880.5 2976.96 1882.56L2976.96 1931.78C2977.08 1933.8 2977.47 1935.32 2978.13 1936.22 2978.81 1937.1 2980.21 1937.57 2982.39 1937.57 2988.29 1937.57 2993.15 1935.46 2996.95 1931.29 3000.75 1927.11 3002.66 1919.08 3002.66 1907.21ZM3020 1907.35C3020 1916.4 3017.05 1924.05 3011.13 1930.34 3004.5 1937.39 2995.44 1940.93 2984.04 1940.93L2952.53 1940.93 2952.53 1938.4C2955.01 1938.24 2956.84 1937.87 2957.91 1937.34 2959.89 1936.32 2960.87 1934.49 2960.87 1931.79L2960.87 1882.5C2960.87 1879.92 2959.93 1878.16 2958.07 1877.13 2957 1876.55 2955.15 1876.13 2952.53 1875.9L2952.53 1873.37 2983.02 1873.37C2995.32 1873.37 3004.72 1876.65 3011.19 1883.24 3017.05 1889.22 3020 1897.26 3020 1907.35ZM2913.59 1917.35 2904 1894.22 2903.15 1894.22 2894.16 1917.35 2913.59 1917.35ZM2944.04 1938.4 2944.04 1940.94 2911.73 1940.94 2911.73 1938.4C2914.98 1938.27 2917.11 1937.98 2918.16 1937.57 2919.17 1937.15 2919.69 1936.07 2919.69 1934.34 2919.69 1933.55 2919.43 1932.38 2918.9 1930.79 2918.58 1929.84 2918.14 1928.71 2917.58 1927.35L2915.05 1921.32 2892.62 1921.32C2891.19 1925.29 2890.24 1927.88 2889.82 1929.07 2888.93 1931.64 2888.5 1933.52 2888.5 1934.69 2888.5 1936.12 2889.47 1937.17 2891.4 1937.81 2892.52 1938.17 2894.22 1938.38 2896.51 1938.4L2896.51 1940.94 2876.13 1940.94 2876.13 1938.4C2878.52 1938.24 2880.46 1937.16 2881.94 1935.13 2882.88 1933.85 2884.21 1931.05 2885.96 1926.74L2908.15 1872 2910.92 1872 2933.2 1924.53C2935.68 1930.42 2937.53 1934.23 2938.79 1935.94 2940.01 1937.65 2941.78 1938.45 2944.04 1938.4ZM2848.98 1907.21C2848.98 1900.15 2847.97 1894.07 2845.9 1889.01 2842.62 1880.83 2837.02 1876.75 2829.16 1876.75 2826.58 1876.75 2824.86 1877.3 2824.07 1878.4 2823.58 1879.12 2823.31 1880.5 2823.31 1882.56L2823.31 1931.78C2823.43 1933.8 2823.79 1935.32 2824.45 1936.22 2825.11 1937.1 2826.56 1937.57 2828.74 1937.57 2834.63 1937.57 2839.48 1935.46 2843.28 1931.29 2847.07 1927.11 2848.98 1919.08 2848.98 1907.21ZM2857.52 1883.24C2863.39 1889.22 2866.33 1897.26 2866.33 1907.35 2866.33 1916.4 2863.39 1924.05 2857.46 1930.34 2850.8 1937.39 2841.79 1940.93 2830.39 1940.93L2798.87 1940.93 2798.87 1938.4C2801.37 1938.24 2803.16 1937.87 2804.27 1937.34 2806.22 1936.32 2807.2 1934.49 2807.2 1931.79L2807.2 1882.5C2807.2 1879.92 2806.27 1878.16 2804.42 1877.13 2803.34 1876.55 2801.52 1876.13 2798.87 1875.9L2798.87 1873.37 2829.34 1873.37C2841.69 1873.37 2851.07 1876.65 2857.52 1883.24ZM2755.5 1875.9C2758.49 1876.04 2760.55 1876.4 2761.73 1877.02 2763.67 1878.03 2764.62 1879.99 2764.62 1882.93L2764.62 1931.37C2764.62 1934.32 2763.59 1936.34 2761.57 1937.37 2760.35 1937.98 2758.32 1938.33 2755.5 1938.4L2755.5 1940.93 2790.37 1940.93 2790.37 1938.4C2787.26 1938.4 2784.9 1937.93 2783.36 1936.98 2781.78 1936.04 2781 1934.16 2781 1931.37L2781 1882.93C2781 1879.97 2781.99 1877.97 2783.94 1876.99 2785.1 1876.39 2787.25 1876.04 2790.37 1875.9L2790.37 1873.37 2755.49 1873.37 2755.49 1875.9ZM2727.08 1922.87C2727.08 1915.78 2724.98 1911.06 2720.78 1908.73 2718.25 1907.29 2714.28 1906.62 2708.87 1906.72L2708.87 1931.69C2708.9 1933.47 2709.18 1934.76 2709.63 1935.57 2710.43 1936.99 2712 1937.71 2714.31 1937.71 2719.04 1937.71 2722.33 1936.43 2724.23 1933.85 2726.14 1931.28 2727.08 1927.63 2727.08 1922.87ZM2708.87 1903.68C2715.01 1903.68 2719.18 1902.68 2721.28 1900.65 2723.4 1898.64 2724.44 1895.06 2724.44 1889.93 2724.44 1886.11 2723.76 1882.9 2722.35 1880.32 2720.98 1877.69 2718.34 1876.39 2714.41 1876.39 2712.35 1876.39 2710.88 1876.75 2710.07 1877.45 2709.26 1878.16 2708.87 1879.41 2708.87 1881.22L2708.87 1903.68ZM2744.28 1922.34C2744.28 1927.88 2741.73 1932.35 2736.64 1935.79 2731.54 1939.23 2724.72 1940.94 2716.28 1940.94L2684.17 1940.94 2684.17 1938.4C2686.88 1938.3 2688.79 1937.94 2689.95 1937.34 2691.95 1936.28 2692.95 1934.3 2692.95 1931.38L2692.95 1882.93C2692.95 1880.03 2692 1878.08 2690.17 1877.07 2689.06 1876.48 2687.05 1876.08 2684.17 1875.9L2684.17 1873.37 2715 1873.37C2720.95 1873.37 2725.89 1874.04 2729.8 1875.41 2737.22 1877.98 2740.93 1882.67 2740.93 1889.47 2740.93 1893.62 2739.41 1896.9 2736.42 1899.31 2733.39 1901.74 2730.17 1903.29 2726.64 1903.93L2726.64 1904.87C2730.35 1905.56 2733.57 1906.78 2736.28 1908.46 2741.61 1911.8 2744.28 1916.41 2744.28 1922.34ZM2656.48 1907.4C2656.48 1896.76 2654.89 1888.74 2651.73 1883.33 2648.55 1877.93 2644.27 1875.22 2638.83 1875.22 2631.25 1875.22 2626.12 1879.73 2623.3 1888.76 2621.83 1893.54 2621.11 1899.76 2621.11 1907.4 2621.11 1915.18 2621.86 1921.47 2623.37 1926.24 2626.12 1935.13 2631.25 1939.57 2638.84 1939.57 2646.3 1939.57 2651.43 1935.13 2654.23 1926.24 2655.72 1921.44 2656.48 1915.14 2656.48 1907.4ZM2663.94 1881.62C2670.78 1888.3 2674.22 1896.89 2674.22 1907.4 2674.22 1917.93 2670.78 1926.51 2663.94 1933.17 2657.25 1939.68 2648.88 1942.95 2638.89 1942.95 2628.2 1942.95 2619.51 1939.37 2612.81 1932.25 2606.55 1925.54 2603.39 1917.43 2603.39 1907.92 2603.39 1897.47 2606.64 1888.84 2613.21 1882.1 2619.88 1875.28 2628.4 1871.85 2638.89 1871.85 2648.91 1871.85 2657.31 1875.12 2663.94 1881.62ZM2568.11 1891.62C2568.11 1887.75 2567.56 1884.7 2566.48 1882.45 2564.65 1878.65 2561.26 1876.75 2556.37 1876.75 2553.69 1876.75 2551.97 1877.07 2551.12 1877.74 2550.31 1878.41 2549.89 1879.51 2549.89 1881.04L2549.89 1906.46C2556.4 1906.38 2561.08 1905.46 2563.89 1903.71 2566.7 1901.97 2568.12 1897.95 2568.12 1891.62ZM2591.72 1938.08C2592.34 1938.33 2593.11 1938.48 2594.01 1938.55L2594.01 1940.94 2573.21 1940.94 2549.91 1909.69 2549.89 1909.69 2549.89 1929.28C2549.89 1932.78 2550.47 1935.16 2551.63 1936.39 2552.82 1937.6 2555.17 1938.27 2558.64 1938.4L2558.64 1940.94 2524.94 1940.94 2524.94 1938.4C2528.34 1938.24 2530.63 1937.6 2531.89 1936.5 2533.09 1935.4 2533.69 1932.99 2533.69 1929.28L2533.69 1885.04C2533.69 1881.2 2533.01 1878.68 2531.54 1877.51 2530.54 1876.75 2528.35 1876.2 2524.94 1875.91L2524.94 1873.37 2557.04 1873.37C2563.7 1873.37 2569.12 1874.07 2573.21 1875.48 2581.23 1878.3 2585.2 1883.39 2585.2 1890.75 2585.2 1896.19 2583.13 1900.47 2578.93 1903.6 2575.74 1905.94 2572.33 1907.41 2568.76 1908.09L2589.98 1936.55C2590.5 1937.34 2591.09 1937.84 2591.72 1938.08ZM2500.3 1892.07C2500.3 1887.5 2499.53 1883.83 2498 1881.04 2496.46 1878.24 2493.53 1876.83 2489.22 1876.83 2487.23 1876.83 2485.81 1877.07 2484.98 1877.55 2484.1 1878.02 2483.69 1878.95 2483.69 1880.32L2483.69 1907.16C2489.62 1907.06 2493.57 1906.38 2495.57 1905.1 2498.72 1903.08 2500.3 1898.74 2500.3 1892.07ZM2517.41 1891.78C2517.41 1895.06 2516.51 1898.15 2514.77 1901.04 2513.03 1903.9 2510.16 1906.23 2506.2 1907.99 2503.15 1909.22 2500.13 1909.97 2497.13 1910.23 2494.1 1910.48 2489.62 1910.6 2483.68 1910.6L2483.68 1929.28C2483.68 1932.94 2484.28 1935.35 2485.51 1936.49 2486.76 1937.63 2489.06 1938.27 2492.45 1938.4L2492.45 1940.93 2459.21 1940.93 2459.21 1938.4C2462.49 1938.17 2464.7 1937.46 2465.83 1936.32 2466.95 1935.15 2467.51 1932.82 2467.51 1929.28L2467.51 1885.04C2467.51 1881.28 2466.92 1878.91 2465.81 1877.93 2464.67 1876.94 2462.49 1876.28 2459.21 1875.9L2459.21 1873.37 2491.31 1873.37C2499.83 1873.37 2506.3 1874.75 2510.72 1877.53 2515.16 1880.29 2517.41 1885.04 2517.41 1891.78ZM2414.29 1925.46C2411.85 1925.46 2409.85 1926.24 2408.37 1927.81 2406.86 1929.36 2406.09 1931.39 2406.09 1933.92 2406.09 1936.28 2406.83 1938.17 2408.25 1939.57 2409.72 1940.99 2411.41 1941.67 2413.59 1941.67 2413.59 1941.67 2413.94 1941.63 2414.42 1941.55 2414.92 1941.46 2415.3 1941.42 2415.65 1941.42 2416.28 1941.42 2416.79 1941.62 2417.17 1942.01 2417.47 1942.44 2417.65 1942.97 2417.65 1943.67 2417.65 1946.07 2416.28 1948.63 2413.59 1951.33 2412.05 1952.9 2409.82 1954.72 2406.8 1956.81L2407.96 1959C2412.33 1956.46 2415.71 1954.02 2418.05 1951.67 2422.31 1947.29 2424.47 1942.41 2424.47 1937.05 2424.47 1933.52 2423.52 1930.69 2421.59 1928.63 2419.72 1926.51 2417.26 1925.46 2414.29 1925.46ZM2360.58 1917.35 2350.96 1894.22 2350.14 1894.22 2341.13 1917.35 2360.58 1917.35ZM2391.01 1938.4 2391.01 1940.94 2358.72 1940.94 2358.72 1938.4C2361.97 1938.27 2364.13 1937.98 2365.13 1937.57 2366.15 1937.15 2366.68 1936.07 2366.68 1934.34 2366.68 1933.55 2366.4 1932.38 2365.92 1930.79 2365.57 1929.84 2365.13 1928.71 2364.57 1927.35L2362.04 1921.32 2339.64 1921.32C2338.19 1925.29 2337.24 1927.88 2336.81 1929.07 2335.92 1931.64 2335.49 1933.52 2335.49 1934.69 2335.49 1936.12 2336.45 1937.17 2338.37 1937.81 2339.51 1938.17 2341.24 1938.38 2343.5 1938.4L2343.5 1940.94 2323.12 1940.94 2323.12 1938.4C2325.53 1938.24 2327.45 1937.16 2328.93 1935.13 2329.88 1933.85 2331.21 1931.05 2332.95 1926.74L2355.14 1872 2357.89 1872 2380.16 1924.53C2382.67 1930.42 2384.53 1934.23 2385.76 1935.94 2386.97 1937.65 2388.75 1938.45 2391 1938.4ZM2300.23 1934.34C2295.44 1936.43 2286.14 1937.46 2272.36 1937.46L2310.91 1874.97 2310.91 1873.37 2257.93 1873.37 2255.84 1893.98 2258.64 1893.98C2260.46 1889.06 2262.1 1885.64 2263.6 1883.74 2266.02 1880.52 2269.42 1878.51 2273.74 1877.68 2274.96 1877.41 2276.31 1877.2 2277.77 1877.06 2279.25 1876.91 2283.84 1876.83 2291.54 1876.83L2252.7 1939.34 2252.7 1940.94 2311.26 1940.94 2313.92 1916.87 2311.26 1916.87C2308.7 1926.44 2305.03 1932.28 2300.23 1934.34ZM2229.13 1934.04C2225.08 1936.53 2219.91 1937.77 2213.54 1937.77 2210.17 1937.77 2207.92 1937.38 2206.84 1936.6 2205.76 1935.85 2205.2 1934.41 2205.2 1932.3L2205.2 1908.09C2210.9 1908.09 2214.81 1909.24 2217.03 1911.57 2219.2 1913.91 2220.67 1917.93 2221.38 1923.62L2223.91 1923.62 2223.91 1889.84 2221.38 1889.84C2220.3 1895.48 2218.76 1899.38 2216.76 1901.53 2214.73 1903.65 2210.9 1904.68 2205.21 1904.61L2205.21 1881.5C2205.21 1879.59 2205.62 1878.33 2206.45 1877.68 2207.29 1877.06 2209.19 1876.75 2212.25 1876.75 2220.3 1876.75 2225.82 1877.93 2228.87 1880.32 2231.9 1882.68 2234.05 1887.1 2235.31 1893.54L2237.77 1893.54 2237.77 1873.37 2180.28 1873.37 2180.28 1875.91C2183.15 1876.08 2185.15 1876.48 2186.26 1877.07 2188.16 1878.08 2189.14 1880.03 2189.14 1882.93L2189.14 1931.38C2189.14 1934.24 2188.21 1936.19 2186.36 1937.24 2185.15 1937.91 2183.16 1938.3 2180.28 1938.41L2180.28 1940.94 2238.57 1940.94 2242.62 1920.13 2239.83 1920.13C2236.71 1926.96 2233.14 1931.58 2229.14 1934.05ZM2157.48 1933.79C2153.41 1936.43 2148.37 1937.77 2142.35 1937.77 2139 1937.77 2136.76 1937.39 2135.62 1936.68 2134.46 1935.97 2133.87 1934.51 2133.87 1932.29L2133.87 1885.04C2133.87 1881.1 2134.55 1878.61 2135.9 1877.61 2137.24 1876.59 2139.94 1876.04 2144 1875.91L2144 1873.37 2109.15 1873.37 2109.15 1875.91C2112.02 1876.08 2114.02 1876.49 2115.1 1877.08 2117.01 1878.08 2117.94 1880.04 2117.94 1882.93L2117.94 1931.37C2117.94 1934.3 2116.94 1936.29 2114.98 1937.35 2113.81 1937.95 2111.86 1938.3 2109.15 1938.41L2109.15 1940.94 2166.9 1940.94 2170.94 1918.29 2168.03 1918.29C2165.11 1925.98 2161.58 1931.14 2157.48 1933.79ZM2086.15 1933.79C2082.08 1936.43 2077.02 1937.77 2071 1937.77 2067.67 1937.77 2065.44 1937.39 2064.28 1936.68 2063.11 1935.97 2062.53 1934.51 2062.53 1932.29L2062.53 1885.04C2062.53 1881.1 2063.2 1878.61 2064.57 1877.61 2065.89 1876.59 2068.62 1876.04 2072.68 1875.91L2072.68 1873.37 2037.8 1873.37 2037.8 1875.91C2040.7 1876.08 2042.69 1876.49 2043.82 1877.08 2045.68 1878.08 2046.62 1880.04 2046.62 1882.93L2046.62 1931.37C2046.62 1934.3 2045.63 1936.29 2043.62 1937.35 2042.47 1937.95 2040.52 1938.3 2037.8 1938.41L2037.8 1940.94 2095.57 1940.94 2099.61 1918.29 2096.68 1918.29C2093.75 1925.98 2090.23 1931.14 2086.15 1933.79ZM2015.13 1934.04C2011.12 1936.53 2005.92 1937.77 1999.54 1937.77 1996.19 1937.77 1993.94 1937.38 1992.85 1936.6 1991.78 1935.85 1991.21 1934.41 1991.21 1932.3L1991.21 1908.09C1996.89 1908.09 2000.83 1909.24 2003.03 1911.57 2005.21 1913.91 2006.68 1917.93 2007.36 1923.62L2009.93 1923.62 2009.93 1889.84 2007.36 1889.84C2006.31 1895.48 2004.78 1899.38 2002.79 1901.53 2000.74 1903.65 1996.89 1904.68 1991.21 1904.61L1991.21 1881.5C1991.21 1879.59 1991.64 1878.33 1992.47 1877.68 1993.29 1877.06 1995.21 1876.75 1998.28 1876.75 2006.31 1876.75 2011.83 1877.93 2014.87 1880.32 2017.92 1882.68 2020.06 1887.1 2021.32 1893.54L2023.75 1893.54 2023.75 1873.37 1966.28 1873.37 1966.28 1875.91C1969.18 1876.08 1971.16 1876.48 1972.29 1877.07 1974.19 1878.08 1975.13 1880.03 1975.13 1882.93L1975.13 1931.38C1975.13 1934.24 1974.24 1936.19 1972.38 1937.24 1971.16 1937.91 1969.13 1938.3 1966.28 1938.41L1966.28 1940.94 2024.61 1940.94 2028.64 1920.13 2025.84 1920.13C2022.74 1926.96 2019.17 1931.58 2015.14 1934.05ZM1937.86 1922.88C1937.86 1915.78 1935.76 1911.06 1931.57 1908.73 1929.04 1907.29 1925.07 1906.62 1919.65 1906.72L1919.65 1931.7C1919.69 1933.47 1919.92 1934.77 1920.43 1935.57 1921.23 1936.99 1922.79 1937.72 1925.07 1937.72 1929.82 1937.72 1933.11 1936.43 1935.01 1933.85 1936.92 1931.28 1937.86 1927.63 1937.86 1922.87ZM1919.65 1903.69C1925.83 1903.69 1929.96 1902.68 1932.07 1900.66 1934.18 1898.65 1935.25 1895.07 1935.25 1889.93 1935.25 1886.11 1934.54 1882.9 1933.16 1880.32 1931.79 1877.69 1929.12 1876.39 1925.2 1876.39 1923.13 1876.39 1921.66 1876.75 1920.85 1877.45 1920.07 1878.16 1919.65 1879.42 1919.65 1881.22L1919.65 1903.68ZM1955.05 1922.34C1955.05 1927.88 1952.51 1932.35 1947.41 1935.79 1942.3 1939.24 1935.52 1940.94 1927.04 1940.94L1894.95 1940.94 1894.95 1938.4C1897.64 1938.3 1899.57 1937.95 1900.76 1937.34 1902.73 1936.28 1903.72 1934.3 1903.72 1931.38L1903.72 1882.93C1903.72 1880.03 1902.79 1878.08 1900.94 1877.07 1899.82 1876.49 1897.83 1876.08 1894.95 1875.91L1894.95 1873.37 1925.78 1873.37C1931.72 1873.37 1936.63 1874.04 1940.58 1875.41 1948.01 1877.99 1951.69 1882.68 1951.69 1889.47 1951.69 1893.62 1950.19 1896.9 1947.18 1899.32 1944.17 1901.75 1940.94 1903.29 1937.42 1903.93L1937.42 1904.87C1941.14 1905.56 1944.35 1906.78 1947.08 1908.46 1952.39 1911.8 1955.05 1916.41 1955.05 1922.34ZM1850.03 1925.46C1847.57 1925.46 1845.62 1926.24 1844.08 1927.81 1842.59 1929.36 1841.8 1931.39 1841.8 1933.93 1841.8 1936.28 1842.55 1938.17 1844 1939.57 1845.43 1940.99 1847.14 1941.68 1849.32 1941.68 1849.32 1941.68 1849.65 1941.63 1850.15 1941.55 1850.63 1941.46 1851.05 1941.42 1851.37 1941.42 1852.01 1941.42 1852.53 1941.62 1852.88 1942.01 1853.2 1942.44 1853.38 1942.98 1853.38 1943.67 1853.38 1946.07 1852.01 1948.64 1849.32 1951.33 1847.8 1952.9 1845.52 1954.72 1842.5 1956.81L1843.67 1959C1848.07 1956.46 1851.42 1954.03 1853.76 1951.68 1858.05 1947.29 1860.18 1942.41 1860.18 1937.05 1860.18 1933.52 1859.24 1930.69 1857.35 1928.63 1855.43 1926.51 1852.98 1925.47 1850.03 1925.47ZM1808.53 1907.21C1808.53 1900.15 1807.51 1894.07 1805.47 1889.01 1802.17 1880.83 1796.58 1876.75 1788.72 1876.75 1786.11 1876.75 1784.43 1877.3 1783.66 1878.4 1783.14 1879.13 1782.86 1880.51 1782.86 1882.56L1782.86 1931.78C1782.95 1933.8 1783.35 1935.32 1784.02 1936.22 1784.68 1937.1 1786.11 1937.57 1788.29 1937.57 1794.19 1937.57 1799.03 1935.47 1802.84 1931.3 1806.63 1927.11 1808.53 1919.08 1808.53 1907.21ZM1817.06 1883.24C1822.94 1889.22 1825.9 1897.27 1825.9 1907.35 1825.9 1916.4 1822.91 1924.05 1817.03 1930.34 1810.36 1937.4 1801.34 1940.94 1789.92 1940.94L1758.43 1940.94 1758.43 1938.4C1760.91 1938.24 1762.71 1937.88 1763.82 1937.34 1765.77 1936.32 1766.75 1934.49 1766.75 1931.79L1766.75 1882.5C1766.75 1879.93 1765.83 1878.16 1763.97 1877.14 1762.9 1876.55 1761.04 1876.13 1758.43 1875.9L1758.43 1873.37 1788.9 1873.37C1801.22 1873.37 1810.6 1876.65 1817.07 1883.24ZM1719.46 1917.35 1709.86 1894.22 1709.03 1894.22 1700.03 1917.35 1719.46 1917.35ZM1749.91 1938.4 1749.91 1940.94 1717.64 1940.94 1717.64 1938.4C1720.88 1938.27 1723.04 1937.98 1724.05 1937.57 1725.04 1937.15 1725.58 1936.07 1725.58 1934.34 1725.58 1933.55 1725.3 1932.38 1724.78 1930.79 1724.47 1929.84 1724.03 1928.71 1723.47 1927.35L1720.94 1921.32 1698.53 1921.32C1697.07 1925.29 1696.13 1927.88 1695.72 1929.07 1694.82 1931.64 1694.39 1933.52 1694.39 1934.69 1694.39 1936.12 1695.36 1937.17 1697.27 1937.81 1698.38 1938.17 1700.1 1938.38 1702.38 1938.4L1702.38 1940.94 1682.02 1940.94 1682.02 1938.4C1684.41 1938.24 1686.35 1937.16 1687.8 1935.13 1688.76 1933.85 1690.13 1931.05 1691.85 1926.74L1714.03 1872 1716.8 1872 1739.04 1924.53C1741.54 1930.42 1743.42 1934.23 1744.66 1935.94 1745.89 1937.65 1747.64 1938.45 1749.91 1938.4ZM1654.87 1907.21C1654.87 1900.15 1653.86 1894.07 1651.81 1889.01 1648.49 1880.83 1642.92 1876.75 1635.05 1876.75 1632.45 1876.75 1630.77 1877.3 1629.98 1878.4 1629.46 1879.12 1629.2 1880.5 1629.2 1882.56L1629.2 1931.78C1629.31 1933.8 1629.68 1935.32 1630.37 1936.22 1631.02 1937.1 1632.43 1937.57 1634.61 1937.57 1640.53 1937.57 1645.38 1935.46 1649.18 1931.29 1652.98 1927.11 1654.88 1919.08 1654.88 1907.21ZM1663.39 1883.24C1669.27 1889.22 1672.2 1897.26 1672.2 1907.35 1672.2 1916.4 1669.27 1924.05 1663.37 1930.34 1656.71 1937.39 1647.68 1940.93 1636.27 1940.93L1604.76 1940.93 1604.76 1938.4C1607.25 1938.24 1609.05 1937.87 1610.15 1937.34 1612.1 1936.32 1613.08 1934.49 1613.08 1931.79L1613.08 1882.5C1613.08 1879.92 1612.14 1878.16 1610.31 1877.13 1609.23 1876.55 1607.38 1876.13 1604.76 1875.9L1604.76 1873.37 1635.24 1873.37C1647.56 1873.37 1656.92 1876.65 1663.39 1883.24ZM1571.31 1891.61C1571.31 1887.75 1570.79 1884.7 1569.72 1882.44 1567.86 1878.65 1564.48 1876.75 1559.59 1876.75 1556.92 1876.75 1555.18 1877.07 1554.35 1877.74 1553.52 1878.41 1553.09 1879.51 1553.09 1881.04L1553.09 1906.46C1559.64 1906.38 1564.29 1905.45 1567.1 1903.71 1569.92 1901.97 1571.31 1897.95 1571.31 1891.62ZM1594.94 1938.08C1595.56 1938.33 1596.32 1938.48 1597.23 1938.55L1597.23 1940.93 1576.41 1940.93 1553.13 1909.69 1553.09 1909.69 1553.09 1929.28C1553.09 1932.78 1553.67 1935.15 1554.84 1936.39 1556.02 1937.59 1558.36 1938.27 1561.88 1938.4L1561.88 1940.93 1528.16 1940.93 1528.16 1938.4C1531.54 1938.24 1533.84 1937.59 1535.08 1936.49 1536.32 1935.4 1536.92 1932.98 1536.92 1929.28L1536.92 1885.03C1536.92 1881.2 1536.21 1878.68 1534.74 1877.51 1533.76 1876.75 1531.57 1876.2 1528.16 1875.9L1528.16 1873.37 1560.26 1873.37C1566.92 1873.37 1572.31 1874.07 1576.44 1875.48 1584.42 1878.3 1588.43 1883.38 1588.43 1890.75 1588.43 1896.19 1586.34 1900.47 1582.14 1903.59 1578.94 1905.94 1575.57 1907.41 1571.98 1908.09L1593.18 1936.55C1593.72 1937.34 1594.31 1937.84 1594.94 1938.08ZM1505.68 1934.04C1501.66 1936.53 1496.46 1937.77 1490.09 1937.77 1486.72 1937.77 1484.48 1937.38 1483.4 1936.6 1482.32 1935.85 1481.77 1934.4 1481.77 1932.3L1481.77 1908.09C1487.45 1908.09 1491.39 1909.24 1493.58 1911.57 1495.76 1913.9 1497.23 1917.92 1497.95 1923.62L1500.48 1923.62 1500.48 1889.83 1497.95 1889.83C1496.86 1895.48 1495.34 1899.38 1493.32 1901.53 1491.31 1903.65 1487.45 1904.68 1481.77 1904.61L1481.77 1881.5C1481.77 1879.59 1482.19 1878.33 1483.03 1877.68 1483.86 1877.06 1485.77 1876.75 1488.84 1876.75 1496.85 1876.75 1502.39 1877.93 1505.44 1880.32 1508.45 1882.67 1510.61 1887.1 1511.88 1893.54L1514.31 1893.54 1514.31 1873.37 1456.83 1873.37 1456.83 1875.9C1459.72 1876.08 1461.72 1876.48 1462.83 1877.07 1464.74 1878.08 1465.69 1880.03 1465.69 1882.93L1465.69 1931.38C1465.69 1934.23 1464.78 1936.19 1462.92 1937.24 1461.72 1937.9 1459.7 1938.3 1456.83 1938.4L1456.83 1940.94 1515.14 1940.94 1519.18 1920.13 1516.41 1920.13C1513.31 1926.95 1509.71 1931.58 1505.68 1934.04ZM1427.09 1875.81C1430.54 1876.04 1432.82 1876.39 1433.94 1876.87 1435.05 1877.32 1435.63 1878.52 1435.63 1880.41 1435.63 1881.2 1435.43 1882.22 1435.04 1883.49 1434.83 1884.27 1434.56 1885.04 1434.27 1885.8L1421.26 1919.47 1405.51 1882.66C1405.3 1882.15 1405.14 1881.66 1405.06 1881.2 1404.97 1880.77 1404.94 1880.3 1404.94 1879.78 1404.94 1878.16 1405.47 1877.13 1406.52 1876.72 1407.57 1876.31 1409.89 1876.01 1413.46 1875.81L1413.46 1873.37 1380 1873.37 1380 1875.81C1382.32 1876.01 1384 1876.64 1385.09 1877.68 1386.17 1878.75 1387.24 1880.49 1388.27 1882.89L1413.94 1942.78 1416.58 1942.78 1439.32 1884.02C1440.46 1881.11 1441.64 1879.08 1442.85 1877.93 1444.08 1876.78 1445.9 1876.08 1448.33 1875.81L1448.33 1873.37 1427.09 1873.37 1427.09 1875.81ZM1735.51 1483.54C1732.02 1477.4 1728.39 1474.93 1722.76 1473.89 1725.52 1481.43 1725.46 1485.95 1725.46 1485.95L1699.24 1491.45 1689.38 1491.09 1697.93 1504.75 1701.04 1498.38C1701.04 1498.38 1720.26 1494.5 1726.24 1493.38 1727.93 1510.29 1738.86 1512.59 1742.11 1512.38 1736.68 1505.12 1742.96 1494.66 1738.82 1489.44 1744.23 1488.03 1765.9 1482.51 1765.9 1482.51L1728.9 1539.01 1721.04 1538.5 1736.45 1558.51 1738.1 1549.46C1738.1 1549.46 1798.63 1467.94 1797.9 1467.87 1797.17 1467.84 1740.18 1482.62 1735.51 1483.55ZM1707.53 1163.93 1710.21 1143.63 1702.73 1145.79 1642.62 1119.48 1705.75 1103.31 1712.11 1108.01 1717.87 1077.31 1710.79 1084.18 1604.57 1109.08 1702.25 1156.37 1707.53 1163.93ZM1636.11 1229.83C1637.3 1229.91 1606.86 1224.2 1612.52 1192.62 1622.43 1192.85 1646.78 1193.94 1646.78 1193.94 1646.78 1193.94 1640.9 1213.32 1652.21 1219.14 1651.07 1204.73 1658.62 1208.84 1663.1 1192.82 1671.12 1193.09 1689.32 1193.08 1698.9 1193.18 1701.94 1218.51 1675.05 1224.88 1675.05 1224.88L1708.82 1224.75 1709.2 1168.76 1701.27 1174.81 1660.32 1172.29C1660.32 1172.29 1653.18 1163.86 1644.78 1160.05 1649.95 1166.12 1648.15 1171.56 1648.15 1171.56L1606.94 1169 1602.98 1162.02 1603.56 1230.14C1603.56 1230.14 1634.95 1229.76 1636.11 1229.83ZM1688.48 1342.25C1693.34 1320.88 1696.57 1318.34 1700.37 1315.16 1705.41 1312.5 1724.62 1309.81 1717.49 1339.44 1715.54 1345.42 1704.82 1353.58 1704.82 1353.58 1704.82 1353.58 1724 1351.23 1734.14 1344.66 1730.99 1343.72 1724.06 1341.12 1724.06 1341.12 1724.06 1341.12 1736.12 1316.96 1714.57 1305.4 1696.79 1297.45 1679.12 1305.69 1671.88 1327.62 1668.52 1340.01 1670.33 1366.47 1646.2 1362.49 1644.92 1361.62 1627.05 1356.51 1634.83 1328.09 1636.52 1326.53 1642.2 1318.93 1642.2 1318.93L1616.19 1326.25 1624.49 1330.94C1624.49 1330.94 1620.13 1356.96 1637.31 1369.04 1664.1 1383.1 1683.42 1369.64 1688.49 1342.25ZM1770.04 1588.89C1775.43 1594.62 1782.28 1589.76 1787.26 1585.99 1792.64 1580.68 1830.89 1544.75 1833.96 1541.75 1837.03 1538.77 1838.67 1533.18 1833.69 1527.18 1832.12 1525.31 1830.86 1523.9 1827.6 1520.06L1760.49 1578.05C1765.56 1583.83 1768.44 1587.13 1770.04 1588.89ZM1776.05 1605.65C1770.98 1599.83 1739.38 1563.96 1739.38 1563.96L1752.03 1562.61 1815.76 1506.76 1817.24 1495.69C1817.24 1495.69 1843.33 1525.96 1850.04 1534.02 1855.84 1540.99 1854 1547.54 1850.42 1550.97 1846.84 1554.48 1803.02 1596.89 1796.76 1603.06 1790.99 1607.42 1782.31 1612.23 1776.05 1605.65ZM1747.58 1377.76 1736.86 1351.89 1729.23 1360.09 1647.96 1390.55 1639.33 1389.28 1649.9 1416.45 1656.45 1409.69 1735.19 1377.41 1747.58 1377.76ZM1697.84 1462.19C1704.34 1458.32 1750.09 1432.7 1753.81 1430.51 1757.54 1428.39 1760.46 1423.34 1757.06 1416.33 1755.98 1414.1 1755.14 1412.41 1752.89 1407.92L1673.77 1448C1677.33 1454.86 1679.33 1458.75 1680.47 1460.87 1684.23 1467.68 1692.11 1464.61 1697.84 1462.2ZM1682.32 1478.55C1678.72 1471.66 1656.7 1429.24 1656.7 1429.24L1669.29 1430.99 1744.57 1392.12 1748.69 1381.74C1748.69 1381.74 1766.69 1417.48 1771.31 1426.9 1775.23 1435.1 1771.89 1440.97 1767.57 1443.53 1763.24 1446.01 1710.51 1476.54 1702.97 1481.06 1696.35 1483.89 1686.69 1486.48 1682.32 1478.55ZM1664.14 1275.51C1665.21 1281.79 1675.67 1285.25 1687.52 1283.21 1699.37 1281.2 1708.1 1274.49 1707.03 1268.19 1705.98 1261.9 1695.51 1258.46 1683.64 1260.49 1671.83 1262.49 1663.08 1269.24 1664.14 1275.51ZM1643.69 1278.77C1645.89 1272.49 1644.19 1268.35 1638.15 1267.4 1619.33 1266.4 1613.2 1275.35 1613.2 1275.35L1611.46 1278.85 1607.38 1245.48 1614.7 1250.66C1614.7 1250.66 1698.76 1246.22 1702.16 1240.83 1704.64 1237.98 1709.18 1232.66 1709.18 1232.66 1709.18 1232.66 1711.64 1244.75 1711.6 1249.67 1711.96 1260.31 1716.27 1266.84 1715.53 1276.69 1713.54 1307.18 1665.18 1300.1 1661.44 1290.58 1654.52 1279.16 1663.42 1269.71 1656.19 1265.25 1653 1265.31 1649.66 1265.2 1647.17 1265.45 1664.81 1304.3 1627.13 1306.44 1627.13 1306.44 1627.13 1306.44 1621.89 1307.77 1623.27 1317.17 1617.68 1315.58 1612.45 1307.45 1617.01 1295.09 1622.37 1284.15 1641.03 1286.1 1643.69 1278.77ZM2612.56 1455.03C2612.8 1455.72 2647.08 1503.67 2649.59 1507.74 2645.15 1513.23 2644.12 1517.48 2645.18 1523.12 2651.21 1517.84 2655.43 1516.3 2655.43 1516.3L2669.98 1538.79 2673.18 1548.14 2682.8 1535.28 2675.8 1534.64C2675.8 1534.64 2665.24 1518.05 2662.09 1512.88 2677.19 1505.22 2675.47 1494.15 2674.06 1491.21 2669.32 1498.91 2657.25 1496.8 2653.91 1502.49 2650.65 1497.93 2637.63 1479.68 2637.63 1479.68L2703.63 1494 2705.98 1501.54 2719.11 1479.92 2710.05 1481.62C2710.05 1481.62 2612.35 1454.3 2612.56 1455.03ZM2238.55 1759.71C2256.65 1753.59 2280.38 1770.41 2292.34 1750.93 2278.44 1758.39 2261.04 1731.19 2238.55 1759.71ZM2206.47 1683.48 2205.68 1737.07 2164.63 1670.76 2155.24 1770.81 2150.04 1780.21 2168.54 1781.36 2163.95 1771.44 2169.45 1709.65 2214.61 1783.63 2217.89 1683.21 2222.41 1674.32 2202.65 1674.06 2206.47 1683.48ZM2246.56 1703.34 2249.18 1717.89C2250.63 1725.69 2256.9 1731.08 2263.28 1729.91 2269.66 1728.76 2273.7 1721.51 2272.3 1713.67L2269.68 1699.16C2268.29 1691.38 2261.98 1685.99 2255.57 1687.15 2249.21 1688.29 2245.17 1695.56 2246.56 1703.34ZM2229.17 1705.26C2230.2 1688.06 2244.46 1674.94 2261.04 1675.97 2277.61 1676.99 2290.18 1691.75 2289.13 1708.94 2288.08 1726.15 2273.79 1739.22 2257.2 1738.2 2240.62 1737.17 2228.1 1722.45 2229.17 1705.26ZM2412.62 1625.61C2412.5 1626.35 2418.8 1685.04 2419.05 1689.78 2412.5 1692.37 2409.45 1695.6 2407.6 1701.02 2415.48 1699.36 2419.94 1700.11 2419.94 1700.11L2421.57 1726.88 2419.76 1736.58 2434.46 1730.1 2428.63 1726.13C2428.63 1726.13 2427.59 1706.49 2427.37 1700.36 2444.31 1701.18 2448.23 1690.68 2448.46 1687.43 2440.49 1691.8 2431.04 1684.02 2425.33 1687.33 2424.75 1681.79 2422.37 1659.51 2422.37 1659.51L2472.8 1704.43 2471.19 1712.16 2493.19 1699.76 2484.5 1696.8C2484.5 1696.8 2412.78 1624.9 2412.62 1625.61ZM2367.28 1642.86 2353.52 1722.38 2295.13 1660.26 2310.08 1759.71 2307.3 1770.07 2325.54 1766.69 2318.72 1758.18 2309.16 1696.89 2356.54 1756.15 2367.23 1686.56 2386.22 1741.87 2384.12 1751.74 2411.67 1742 2403.17 1738.37 2367.28 1642.86ZM2089.28 1662.65C2089.28 1662.65 2031.8 1646.43 2028.3 1645.42 2028.3 1645.42 2021.88 1663.6 2019.77 1669.62 2029.76 1663.9 2038.78 1661.41 2046.92 1661.6L2020.57 1744.31 2014.2 1750.27 2042.03 1758.76 2040.76 1749.42 2064.24 1667.48 2064.81 1666.82C2072.27 1671.32 2078.7 1678.52 2084.16 1687.81 2084.95 1684.78 2089.28 1662.65 2089.28 1662.65ZM1710.42 1066.17 1720.37 1073.49 1726.39 1046.18 1726.08 1046.24 1732.88 1028.01 1722.68 1028.42 1672.66 1009.55 1748.81 993.267 1657.99 950.588 1650.93 942.52 1643.6 959.589 1654.48 958.609 1710.63 984.659 1625.92 1002.25 1719.11 1039.29 1725.75 1046.31 1715.45 1048.54 1631.4 1026.9 1625.05 1020.89 1618.23 1049.25 1627.43 1047.44 1710.42 1066.17ZM1873.62 1629.25C1868.16 1624.81 1863.87 1623.8 1858.26 1624.87 1863.53 1630.89 1865.15 1635.19 1865.15 1635.19L1842.69 1649.77 1833.35 1652.98 1846.24 1662.62 1846.84 1655.55C1846.84 1655.55 1863.36 1644.97 1868.55 1641.77 1876.23 1656.89 1887.27 1655.15 1890.19 1653.76 1882.49 1648.97 1884.58 1636.92 1878.86 1633.55 1883.4 1630.31 1901.55 1617.25 1901.55 1617.25L1887.51 1683.38 1879.98 1685.78 1901.56 1698.85 1899.88 1689.79C1899.88 1689.79 1926.84 1591.8 1926.13 1592 1925.42 1592.24 1877.66 1626.75 1873.62 1629.25ZM2122.26 1681.68C2115.83 1680.85 2109.77 1686.54 2108.79 1694.39L2106.89 1709.02C2105.89 1716.88 2110.29 1723.91 2116.72 1724.74 2123.14 1725.58 2129.21 1719.91 2130.17 1712.03L2132.06 1697.4C2133.07 1689.53 2128.68 1682.49 2122.26 1681.68ZM2147.67 1712.63C2141.47 1728.69 2123.91 1736.83 2108.43 1730.84 2092.93 1724.9 2085.39 1707 2091.56 1690.93 2097.74 1674.86 2115.34 1666.69 2130.81 1672.67 2146.33 1678.68 2153.86 1696.53 2147.67 1712.63ZM2553.63 1635.17C2548.79 1629.37 2516.33 1588.11 2513.63 1584.76 2510.94 1581.42 2505.55 1579.31 2499.12 1583.77 2497.12 1585.2 2495.61 1586.29 2491.52 1589.25L2518.24 1626.31C2524.1 1624.34 2529.92 1622.19 2533.57 1616.99 2533.27 1628.67 2530.78 1635.08 2527.17 1638.67L2543.44 1661.25C2549.65 1656.64 2553.15 1654 2555.04 1652.6 2561.15 1647.75 2556.93 1640.43 2553.63 1635.17ZM2571.44 1627.1C2575.27 1633.24 2579.33 1642.39 2572.21 1648.02 2565.97 1652.66 2527.63 1681.1 2527.63 1681.1L2527.38 1668.35 2509.18 1643.5C2504.59 1643.85 2500.61 1644.71 2498.69 1649.02 2498.2 1642.05 2499.75 1637.53 2502.48 1634.38L2477.26 1599.95 2466.38 1597.51C2466.38 1597.51 2498.79 1574.05 2507.35 1568.02 2514.75 1562.85 2521.13 1565.28 2524.26 1569.11 2527.38 1572.99 2565.8 1620.37 2571.43 1627.1ZM2084.16 1745.68C2103.28 1745.32 2120.86 1768.55 2138.14 1753.6 2122.58 1756.53 2114.18 1725.31 2084.16 1745.68ZM1996.07 1630.65 1995.75 1638.41 1951.91 1687.31 1956.51 1622.16 1962.92 1617.63 1935.71 1602.45 1939.95 1611.31 1930.09 1720.2 2005.66 1642.26 2014.54 1639.59 1996.07 1630.65ZM2728.46 1050.97C2726.87 1044.82 2716.15 1042.24 2704.53 1045.25 2692.9 1048.27 2684.74 1055.74 2686.33 1061.9 2687.98 1068.07 2698.7 1070.61 2710.29 1067.6 2721.92 1064.61 2730.07 1057.15 2728.46 1050.97ZM2774.7 1049.49 2780.68 1043.16 2786.45 1070.74 2778.29 1068.33C2778.29 1068.33 2696.38 1083.07 2693.52 1088.7 2691.28 1091.77 2687.16 1097.45 2687.16 1097.45 2687.16 1097.45 2683.7 1085.65 2683.32 1080.75 2682.09 1070.13 2677.26 1064.06 2677.19 1054.12 2676.62 1023.59 2725.4 1026.5 2729.88 1035.73 2737.76 1046.52 2730.17 1052.76 2736.86 1058.68 2740.02 1058.35 2774.7 1049.48 2774.7 1049.48ZM2699.7 1103.29 2687.79 1099.93 2691.87 1127.64 2701.22 1121.52 2787.47 1111.8 2795.54 1115.18 2791.89 1086.23 2783.89 1091.24 2699.69 1103.29ZM2589.71 1503.26 2589.32 1502.46C2596.35 1497.22 2605.5 1494.04 2616.09 1492.63 2613.63 1490.7 2594.92 1478.21 2594.92 1478.21 2594.92 1478.21 2557.92 1525.13 2555.58 1528.06 2555.58 1528.06 2569.9 1540.96 2574.66 1545.23 2573.18 1533.79 2574.41 1524.51 2577.69 1517.01L2643.72 1573.13 2646.81 1581.31 2665.33 1558.83 2656.21 1556.39 2589.71 1503.27ZM2751.48 969.013 2758.95 971.508 2749.17 948.217 2745.29 956.531C2745.29 956.531 2665.74 1019.61 2666.48 1019.9 2667.15 1020.14 2726.05 1020.51 2730.8 1020.9 2732.59 1027.7 2735.47 1031.05 2740.6 1033.58 2739.9 1025.52 2741.1 1021.16 2741.1 1021.16L2767.85 1022.62 2777.28 1025.5 2772.57 1010.14 2767.9 1015.5C2767.9 1015.5 2748.31 1014.28 2742.27 1013.81 2744.99 997.024 2735 991.943 2731.82 991.285 2735.25 999.747 2726.44 1008.22 2729.1 1014.35 2723.5 1014.27 2701.1 1014.07 2701.1 1014.07L2751.48 969.017ZM2658.75 1344.92 2712.5 1405.05 2627.69 1412.49 2714.8 1462.37 2721.18 1470.95 2729.8 1454.52 2718.93 1454.61 2665.1 1424.15 2740.82 1423.6 2692.97 1372.05 2747.99 1391.45 2754.46 1399.15 2763.89 1371.5 2755.81 1375.93 2658.74 1344.92ZM1748.69 987.919 1758.63 970.017 1750.9 969.253 1704.72 922.606 1769.35 930.88 1773.54 937.611 1790.14 911.207 1781.03 914.95 1673.18 898.859 1746.55 978.934 1748.69 987.919ZM2650.65 949.155C2651.09 942.893 2659.53 932.395 2659.53 932.395 2659.53 932.395 2641.46 939.316 2633.23 948.203 2636.51 948.323 2643.89 949.209 2643.89 949.209 2643.89 949.209 2638.06 975.583 2661.74 981.455 2680.94 984.823 2696.11 972.592 2697.73 949.506 2697.97 936.685 2689.81 911.399 2714.21 909.417 2715.68 909.926 2734.23 910.461 2733.61 940.012 2732.35 941.903 2728.66 950.712 2728.66 950.712L2752.11 937.25 2742.91 934.756C2742.91 934.756 2740.82 908.425 2721.22 900.931 2691.79 893.809 2676.34 911.577 2678.1 939.398 2678.6 961.32 2676.08 964.536 2673.18 968.588 2668.91 972.339 2650.96 979.675 2650.65 949.157ZM2696.23 1198.43 2693.57 1218.77 2701.01 1216.64 2761.1 1243.05 2697.93 1259.1 2691.6 1254.39 2685.8 1285.03 2692.87 1278.23 2799.1 1253.49 2701.53 1206.02 2696.23 1198.43ZM2766.39 1129.4C2788.4 1138.27 2787.47 1165.91 2787.47 1165.91L2706.25 1166.41 2695.12 1161.37 2695.19 1189.36 2705.19 1184.69 2790.5 1187.9 2797.89 1192.43 2795.54 1127.54C2795.54 1127.54 2774.24 1128.92 2766.39 1129.4ZM2677.9 1298.4C2678.34 1298.96 2727.98 1330.78 2731.76 1333.61 2729.69 1340.33 2730.29 1344.72 2733.37 1349.54 2737.04 1342.41 2740.38 1339.4 2740.38 1339.4L2762.22 1354.89 2768.66 1362.37 2772.82 1346.85 2766.04 1348.94C2766.04 1348.94 2750.15 1337.35 2745.27 1333.74 2756.52 1321.01 2750.81 1311.36 2748.4 1309.15 2746.79 1318.09 2734.83 1320.56 2733.84 1327.16 2729.1 1324.08 2710.29 1312.01 2710.29 1312.01L2776.89 1300.77 2781.85 1306.86 2786.05 1281.99 2778.29 1286.9C2778.29 1286.9 2677.45 1297.81 2677.91 1298.4ZM2160.71 1812.28C2512.78 1834.02 2815.78 1565.65 2837.44 1212.8 2859.13 859.937 2591.32 556.296 2239.27 534.563 1887.21 512.826 1584.21 781.22 1562.53 1134.07 1540.84 1486.92 1808.68 1790.55 2160.71 1812.28ZM1545.25 1133.01C1567.53 770.612 1878.72 494.938 2240.34 517.266 2601.95 539.587 2877 851.466 2854.74 1213.86 2832.48 1576.25 2521.27 1851.97 2159.65 1829.65 1798.06 1807.33 1522.99 1495.39 1545.26 1133.01ZM2405.38 887.371C2406.76 887.371 2407.88 886.447 2408.24 885.169 2406.29 884.74 2404.35 884.313 2402.48 883.858 2402.45 884.017 2402.37 884.165 2402.37 884.341 2402.37 886.044 2403.71 887.371 2405.38 887.371ZM2561.88 945.119C2561.88 943.47 2560.56 942.101 2558.93 942.101 2557.47 942.101 2556.33 943.119 2556.02 944.45 2557.66 945.442 2559.29 946.406 2560.89 947.331 2561.48 946.767 2561.88 946.005 2561.88 945.119ZM2528.08 743.512C2528.08 745.215 2529.4 746.546 2531.06 746.546 2531.79 746.546 2532.45 746.265 2532.97 745.819 2532.51 744.037 2532.02 742.318 2531.55 740.631 2531.38 740.605 2531.23 740.525 2531.06 740.525 2529.4 740.525 2528.08 741.895 2528.08 743.514ZM2406.06 881.498C2406.24 881.538 2406.43 881.578 2406.58 881.62 2406.43 881.552 2406.24 881.536 2406.06 881.498ZM2491.78 852.162C2491.78 854.67 2492.51 856.961 2493.84 858.894 2505.2 858.342 2509.31 862.606 2513.08 859.348 2514.59 857.376 2515.49 854.883 2515.49 852.162 2515.49 845.607 2510.16 840.307 2503.59 840.307 2497.04 840.307 2491.78 845.605 2491.78 852.162ZM2487.8 852.162C2487.8 843.447 2494.89 836.355 2503.59 836.355 2512.38 836.355 2519.43 843.445 2519.43 852.162 2519.43 860.946 2512.38 868.012 2503.59 868.012 2494.9 868.012 2487.8 860.947 2487.8 852.162ZM2507.46 852.204C2509.27 852.204 2510.72 850.767 2510.72 848.97 2510.72 847.178 2509.27 845.703 2507.46 845.703 2505.71 845.703 2504.26 847.178 2504.26 848.97 2504.26 850.767 2505.71 852.204 2507.46 852.204ZM1977.88 983.805C1978.4 983.789 1979.88 982.22 1977.88 981.417 1969.68 979.807 1955.69 988.765 1954.95 995.389 1955.09 997.145 1955.71 997.664 1957.15 996.674 1961.74 986.579 1973.11 984.366 1977.88 983.805ZM1947.31 993.646C1949.25 993.041 1952.65 994.812 1952.65 994.812L1953.86 992.213C1953.86 992.213 1944.3 988.833 1943.03 988.324 1942.8 991.554 1947.08 993.524 1947.31 993.646ZM1977.95 986.284C1968.49 987.106 1962.13 992.011 1959.97 998.716 1960.31 1000.86 1965.71 1005.36 1965.71 1005.36 1965.71 1005.36 1981.72 1019.78 1982.13 1019.93 1987.24 1021.12 1989.99 1018.38 1990.48 1014.1 1990.19 1013.69 1982.13 993.179 1982.13 993.179 1982.13 993.179 1979.94 986.861 1977.95 986.284ZM1780.48 800.421C1780.48 800.421 1814.34 767.438 1772.07 750.301 1773.68 757.433 1776.28 771.634 1773.71 778.11 1773.53 783.445 1780.48 800.421 1780.48 800.421ZM1806.93 857.77C1817.56 857.66 1805.31 835.39 1819.84 821.78 1823.7 813.696 1817.9 785.535 1817.9 785.535 1817.9 785.535 1810.23 772.247 1799.19 765.829 1806.61 795.89 1737.24 843.77 1806.93 857.77ZM1803.68 753.561C1812.84 753.01 1821.24 755.062 1827.02 757.286 1825.91 746.252 1803.93 737.336 1803.93 737.336 1803.93 737.336 1808.61 735.431 1814.12 735.835 1807.66 727.023 1787.01 729.828 1787.01 729.828 1787.01 729.828 1803.68 737.35 1803.68 753.561ZM1819.57 740.985C1819.57 740.985 1829.48 749.243 1832.17 757.286 1839.59 758.962 1841.24 760.425 1847.45 764.328 1851.56 743.059 1819.57 740.985 1819.57 740.985ZM1845.7 770.642C1844.67 768.66 1823.53 757.116 1802.82 758.898 1828.77 768.35 1824.87 817.936 1824.87 817.936 1824.87 817.936 1845.79 796.413 1854.66 793.411 1851.88 790.099 1844.67 783.529 1845.7 770.642ZM1858.18 791.843C1870.98 791.626 1874.29 778.445 1903.16 784.184 1883.75 770.133 1869.31 756.066 1867.21 751.105 1866.5 751.87 1865.38 755.168 1864.95 757.286 1862.08 755.183 1860.03 753.385 1858.18 744.885 1854.76 745.945 1844.15 769.3 1858.18 791.843ZM1882.91 794.564C1862.41 797.487 1808.78 828.889 1814.27 884.68 1818.58 918.791 1851.13 929.247 1851.13 929.247L1839.9 905.357 1839.05 893.114C1839.05 893.114 1836.16 885.996 1833.67 882.856 1834.13 880.203 1838.82 874.809 1846.61 877.266 1855.75 808.388 1938.99 813.053 1946.99 865.04 1948.1 868.349 1954.76 877.055 1958.41 875.685 1962.8 867.639 1963.45 782.956 1882.91 794.566ZM1930.64 889.28C1930.64 889.28 1934.91 891.449 1937.9 889.667 1940.86 887.912 1938.67 886.824 1938.67 886.824 1938.67 886.824 1932.22 883.943 1930.02 885.147 1927.86 886.383 1930.64 889.28 1930.64 889.28ZM1932.78 898.652C1932.78 898.652 1932.9 900.969 1934.87 901.839 1936.37 902.832 1938.79 902.953 1942.74 901.225 1944.97 896.222 1932.78 898.652 1932.78 898.652ZM1956.18 940.995 1941.6 907.578 1937.9 907.578 1952.49 940.995 1956.18 940.995ZM1901.6 921.873C1901.6 921.486 1897.64 921.188 1897.64 921.188 1897.64 921.188 1897.53 926.001 1897.64 926.403L1925.03 962.244 1927.34 958.022C1927.34 958.022 1901.6 922.314 1901.6 921.873ZM1907.83 917.917 1904.17 917.917 1903.03 920.452 1928.3 956.441 1930.44 954.173 1907.83 917.919ZM1913.74 913.116 1909.74 913.116 1908.97 916.346 1931.85 952.764 1934.95 949.652 1913.74 913.114ZM1919.82 908.395 1916.15 908.395 1915.15 911.266 1936.79 948.662 1939.46 946.678 1919.82 908.397ZM1946.7 942.665 1950.24 941.715 1934.95 907.578 1930.44 907.578 1946.7 942.667ZM1928.3 907.576 1921.95 907.576 1941.33 945.39 1944.97 943.538 1928.3 907.576ZM1972.04 948.658C1970.66 947.224 1965.43 942.721 1960.02 942.663 1955.14 942.344 1936.62 945.172 1925.97 964.146 1924.78 971.063 1927.74 968.746 1928.14 967.139 1932.61 959.817 1952.97 938.966 1970.43 951.984 1971.49 952.509 1974.58 952.91 1972.04 948.658ZM1970.43 954.131C1966.94 951.676 1958.35 947.961 1947.03 953.649 1942.98 955.752 1930.64 963.621 1928.8 973.343 1927.6 983.21 1935.57 985.278 1937.9 984.699 1941.28 957.427 1966.65 958.579 1973.05 961.302 1977.31 961.557 1972.97 956.437 1970.43 954.129ZM1980.71 974.75C1980.71 970.261 1978.41 966.051 1974.2 964.428 1958.53 959.144 1942.87 968.825 1940.34 985.534 1940.34 990.574 1944.21 996.756 1949.37 996.848 1952.97 996.848 1956.18 1001.13 1956.18 1001.13 1956.18 1001.13 1974.48 1022.91 1978.54 1024.11 1987.06 1027.93 1994.77 1022.5 1992.98 1013.59 1992.3 1009.73 1980.97 983.895 1980.97 983.895 1980.97 983.895 1979.06 980.399 1980.71 974.75ZM1924.49 853.38C1886.54 830.184 1856.14 870.1 1860.26 888.978 1860.06 891.082 1858.36 890.345 1858.36 890.345 1858.36 890.345 1859.21 902.117 1859.36 904.652 1860.06 909.643 1862.2 909.223 1862.55 905.872 1862.84 904.291 1864.37 894.424 1870.67 889.623 1865.92 874.013 1895.19 840.521 1921.37 859.077 1921.28 856.488 1922.69 854.6 1924.49 853.38ZM1923.63 879.392 1928.3 880.089 1918.68 859.963 1913.75 857.792 1923.63 879.392ZM1916.73 880.666 1920.69 880.089 1910.8 856.881 1905.55 856.318 1916.73 880.666ZM1896.76 874.577C1899.96 875.145 1905.76 875.18 1909.21 871.414 1910.93 867.647 1908.21 866.132 1906.75 867.309 1905.24 868.411 1896.21 868.625 1895.19 870.731 1894.16 872.741 1895.38 874.348 1896.76 874.577ZM1901.89 864.509 1907.27 864.509 1903.31 856.318 1897.64 857.792 1901.89 864.507ZM1892.98 868.92 1899.34 865.123 1894.79 858.917 1888.47 862.403 1892.98 868.92ZM1878.87 871.721 1874.51 876.601 1878.16 881.227 1882.39 876.496 1878.87 871.721ZM1884.81 874.861 1890.95 869.95 1886.95 865.123 1880.72 869.992 1884.81 874.861ZM1932.78 858.514C1930.47 858.085 1927.98 856.76 1926.87 854.881 1926.6 854.733 1925.67 854.25 1925.08 856.318 1924.3 860.834 1933.68 865.123 1933.68 865.123 1933.68 865.123 1934.39 863.101 1937.48 862.9 1938 862.604 1935.12 858.971 1932.79 858.514ZM1943.5 862.832C1936.56 819.834 1857.57 811.37 1849.58 879.005 1854.81 881.377 1856.14 884.81 1857.39 885.95 1854.66 855.364 1899.77 825.761 1927.46 853.206 1929.95 856.262 1932.73 857.374 1935.19 857.538 1937.65 857.74 1940.61 860.902 1943.5 862.832ZM1847.3 896.126C1848.57 895.226 1848.14 884.74 1847.3 882.584 1846.42 880.424 1835.9 877.608 1838.92 884.057 1841.93 890.519 1842.13 891.617 1842.13 896.124 1843.22 895.224 1845.57 894.194 1847.3 896.124ZM1939.88 865.271C1936.24 863.597 1934.11 867.016 1934.11 867.016 1934.11 867.016 1926.26 864.131 1924.26 859.814 1924.38 867.633 1928.45 870.703 1930.03 872.352 1937.83 875.943 1945.52 885.465 1947.67 887.958 1953.74 894.234 1960.76 924.107 1965.33 928.037 1968.4 938.388 1974.97 936.176 1977.01 942.44 1984.37 950.281 1982.46 974.992 1986.88 981.214 1991.05 995.361 1996.35 1006.12 2000.29 1009.56 2011.99 1067.47 1976.84 1045.54 1976.84 1045.54L1934.08 997.195 1927.08 996.257 1925.97 993.175 1918.31 993.175C1918.31 993.175 1920.93 976.24 1912.25 977.203 1909.38 979.202 1910.86 983.599 1910.86 983.599L1897.07 970.752 1896.55 954.461 1889.11 954.461C1889.11 954.461 1887.07 933.489 1895.06 919.585 1896.5 917.092 1899.24 918.811 1899.24 918.811L1913.15 907.708 1913.96 903.832 1930.64 905.185C1930.64 905.185 1937.81 906.447 1939.87 903.832 1936.55 903.899 1934.92 904.596 1933.73 902.987 1931.23 901.768 1931.44 897.959 1931.44 897.959 1931.44 897.959 1925.17 896.294 1921.13 897.529 1916.23 897.354 1912.04 899.46 1909.58 900.506 1898.61 906.742 1890.82 915.914 1888.35 918.663 1886.24 925.003 1882.69 947.598 1882.69 947.598 1882.69 947.598 1882.05 918.356 1883.8 914.251 1885.33 912.361 1888.35 913.192 1888.35 913.192L1900.04 896.126 1901.43 895.162C1901.43 895.162 1901.43 897.963 1902.21 898.286 1903.96 900.871 1908.82 898.604 1908.82 898.604L1910.52 896.126 1912.68 891.715 1915.99 890.617C1915.99 890.617 1923 893.27 1923.47 893.27 1923.91 893.27 1931.75 894.865 1932.22 894.865 1932.68 894.865 1936.03 894.998 1937.38 895.024 1939.92 893.913 1938.29 891.715 1938.29 891.715 1938.29 891.715 1933.17 892.585 1930.33 891.084 1929.1 890.507 1926.6 886.607 1927.99 884.688 1924.58 882.476 1919.2 883.121 1911.44 883.121 1908.15 882.826 1905.94 884.289 1903.47 885.976 1892.09 893.004 1879.62 908.179 1878.49 911.627 1877.35 915.032 1877.07 929.285 1877.07 929.285 1877.07 929.285 1872.88 917.054 1871.16 915.835 1869.46 914.589 1868.01 914.413 1868.01 914.413 1868.01 914.413 1870.17 913.315 1870.37 911.629 1872.88 909.698 1882.44 884.852 1888.03 881.081 1888.2 889.505 1897.19 885.708 1900.04 885 1907.45 881.904 1908.82 874.526 1908.82 874.526 1908.82 874.526 1902.57 878.588 1896.55 876.885 1894.5 876.31 1892.51 874.619 1892.54 872.354 1881.5 875.208 1866.36 900.404 1865.71 905.644 1862.69 910.888 1862.69 917.272 1864.15 919.589 1863.68 927.287 1873.5 944.312 1873.5 944.312 1873.5 944.312 1859.01 931.656 1856.95 923.185 1854.9 918.166 1855.72 912.994 1855.72 912.994 1855.72 912.994 1849.02 906.688 1848.09 899.865 1840.57 897.09 1843.26 904.852 1843.26 904.852L1855.23 928.493C1855.23 928.493 1883.02 962.144 1890.18 965.282 1900.07 990.155 1929.74 1012.09 1931.55 1013.5 1937.82 1015.98 1939.08 1018.38 1940.81 1023.03 1945.78 1036.01 1972.13 1057.92 1974.67 1060.12 1998.72 1061.98 1996.98 1086.72 2000.59 1096.25 2044.62 1149.32 2083.21 1178.59 2130.66 1191.57 2148.79 1195.31 2145.25 1190.35 2147.36 1184.04 2158.14 1249.14 2193.84 1224.02 2194.87 1222.21 2179.72 1253.37 2153.78 1216.77 2151.88 1217.06 2154.53 1226.14 2176.12 1254.72 2178.64 1258.71 2201.57 1236.31 2213.01 1254.03 2217.65 1258.71 2239.02 1237.94 2246.65 1207.98 2243.58 1209.88 2215.28 1253.83 2198.56 1223.17 2199.23 1221.77 2209.02 1228.47 2234.96 1235.67 2246.21 1182.95 2247.46 1187.98 2249.34 1194.06 2250.4 1197.67 2252.77 1204.71 2256.09 1201.01 2259.19 1199.4 2279.61 1179.69 2355.84 1146.35 2387.4 1100.81 2392.52 1090 2416.71 1070.76 2415.32 1007.02 2411.44 1006.28 2391.45 1033.98 2391.45 1033.98 2391.45 1033.98 2421.58 990.764 2426.12 979.503 2421.26 1007.69 2452.82 995.82 2453.9 994.197 2463.27 989.077 2471.27 982.156 2477.64 973.494 2476.08 969.005 2474.6 964.136 2473.24 958.922 2472.98 960.356 2472.79 961.39 2472.79 961.521 2472.79 961.749 2472.5 957.982 2471.98 953.974 2471.31 951.183 2470.64 948.329 2470.03 945.364 2469.87 945.125 2469.69 944.949 2469.52 944.949 2467.19 953.355 2460.15 959.493 2460.15 959.493 2460.15 959.493 2464.54 952.9 2464.38 945.739 2459.22 955.234 2435.19 968.251 2435.19 968.251 2435.19 968.251 2455.29 956.036 2464.54 941.622 2448.46 959.629 2408.71 968.063 2404.09 968.424 2403.79 979.499 2413.93 980.423 2416.28 980.906 2411.44 986.418 2405.15 997.507 2405.15 997.507 2405.15 997.507 2408.28 984.057 2406.58 978.587 2405.64 977.006 2402.95 976.832 2401.75 978.882 2395.04 995.439 2344.25 1067.39 2341.03 1071.99 2337.75 1076.57 2286.03 1162.13 2253.89 1175.9 2231.38 1176.37 2216.71 1177.75 2216.71 1177.75 2216.71 1177.75 2216.98 1174.51 2213.59 1174.51 2203.75 1181.25 2184.7 1177.31 2182.22 1174.51 2179.47 1175.06 2178.65 1175.92 2176.56 1178.58 2165.48 1175.9 2141.44 1179.52 2133.16 1176.22 2126.94 1174.77 2101.65 1151.66 2091.03 1141.95 2069.43 1120 2034.17 1059.01 2034.17 1059.01L1994.35 978.279C1994.35 978.279 1985.73 966.843 1982.33 943.845 1978.93 920.839 1965.78 901.867 1965.78 901.867 1965.78 901.867 1946.86 868.094 1939.87 865.261ZM2179.35 1158.91C2190.7 1176.48 2207.51 1175.35 2215.41 1158.44 2216.76 1157.3 2217.49 1154.79 2217.49 1154.79 2217.49 1154.79 2220.74 1146.47 2218.89 1139.28 2211.38 1109.77 2183.85 1104.09 2176.48 1139.83 2172.56 1144.9 2176.69 1153.39 2177.22 1154.61 2177.12 1156.27 2178.79 1158.27 2179.35 1158.91ZM2397.12 957.064C2397.96 947.197 2400.14 931.391 2405.7 922.246 2410.67 914.078 2419.14 899.666 2425.6 888.405 2424.17 888.177 2422.67 887.948 2421.26 887.695 2398.79 920.089 2388.78 946.596 2397.12 957.066ZM2419.86 884.313C2427.3 873.705 2435.94 862.566 2445.65 851.208 2435.94 839.878 2427.3 828.719 2419.86 818.115 2379.94 825.313 2353.75 837.464 2353.75 851.208 2353.75 862.107 2370.21 871.99 2396.87 879.205 2398.6 876.266 2401.74 874.282 2405.39 874.282 2410.63 874.282 2414.84 878.33 2415.31 883.438 2416.81 883.734 2418.31 884.031 2419.86 884.313ZM2412.56 886.069C2411.1 885.772 2409.67 885.48 2408.25 885.169 2408.33 884.904 2408.42 884.632 2408.42 884.341 2408.42 883.105 2407.65 882.061 2406.59 881.62 2408.56 882.061 2410.55 882.502 2412.62 882.919 2411.94 879.488 2409.05 876.831 2405.39 876.831 2402.95 876.831 2400.89 878.093 2399.51 879.901 2401.63 880.452 2403.82 880.987 2406.07 881.496 2405.85 881.454 2405.63 881.377 2405.39 881.377 2403.89 881.377 2402.71 882.448 2402.48 883.858 2401.01 883.508 2399.62 883.147 2398.2 882.782 2398.11 883.291 2397.89 883.788 2397.89 884.341 2397.89 888.495 2401.28 891.863 2405.39 891.863 2408.94 891.863 2411.76 889.369 2412.56 886.072ZM2421.26 814.71C2434 812.472 2448 810.716 2462.88 809.585 2464.01 794.676 2465.72 780.665 2467.96 767.915 2434.68 744.692 2407.57 734.73 2397.88 744.422 2388.12 754.172 2398.12 781.336 2421.26 814.71ZM2466.07 809.346C2472.76 808.875 2479.66 808.539 2486.68 808.328 2491.79 803.499 2496.88 798.902 2502.01 794.437 2491.24 785.238 2480.77 776.99 2470.78 769.887 2468.75 781.992 2467.17 795.215 2466.07 809.346ZM2471.37 766.476C2481.95 773.934 2493.04 782.633 2504.41 792.37 2515.73 782.633 2526.85 773.934 2537.43 766.476 2536.57 761.733 2535.65 757.2 2534.67 752.87 2533.55 753.299 2532.33 753.555 2531.06 753.555 2525.56 753.555 2521.07 749.089 2521.07 743.51 2521.07 738.539 2524.71 734.449 2529.45 733.685 2522.59 712.739 2513.88 700.205 2504.41 700.205 2490.66 700.205 2478.54 726.456 2471.37 766.478ZM2533.6 736.523C2534.72 740.24 2535.79 744.183 2536.78 748.283 2537.87 746.983 2538.6 745.348 2538.6 743.51 2538.6 740.28 2536.51 737.585 2533.6 736.523ZM2530.23 736.19C2526.51 736.619 2523.59 739.689 2523.59 743.51 2523.59 747.684 2526.93 751.073 2531.06 751.073 2532.15 751.073 2533.16 750.834 2534.1 750.415 2533.72 748.86 2533.37 747.318 2532.98 745.817 2533.63 745.268 2534.08 744.464 2534.08 743.51 2534.08 742.063 2532.99 740.869 2531.56 740.629 2531.13 739.102 2530.67 737.627 2530.23 736.192ZM2538.02 769.887C2528.04 776.99 2517.54 785.238 2506.82 794.437 2511.9 798.902 2517 803.501 2522.11 808.328 2529.15 808.539 2536.04 808.875 2542.72 809.346 2541.65 795.215 2540.05 781.992 2538.02 769.887ZM2540.85 767.915C2543.05 780.665 2544.78 794.676 2545.91 809.585 2560.78 810.716 2574.8 812.47 2587.54 814.71 2610.68 781.336 2620.63 754.172 2610.95 744.422 2601.22 734.73 2574.11 744.692 2540.85 767.915ZM2588.94 818.115C2581.52 828.719 2572.86 839.88 2563.12 851.208 2572.86 862.565 2581.52 873.705 2588.94 884.313 2628.87 877.111 2655.08 864.978 2655.08 851.208 2655.08 837.464 2628.87 825.313 2588.94 818.115ZM2587.54 887.692C2575.11 889.916 2561.46 891.581 2547.02 892.707 2547.43 894.543 2546.5 898.312 2545.1 902.254 2544 913.677 2542.57 924.498 2540.85 934.553 2543.96 936.713 2546.99 938.723 2549.98 940.653 2551.63 937.369 2554.98 935.09 2558.93 935.09 2564.43 935.09 2568.89 939.581 2568.89 945.121 2568.89 947.211 2568.24 949.169 2567.15 950.78 2587.94 961.749 2603.95 964.991 2610.95 958.02 2620.64 948.261 2610.69 921.081 2587.54 887.695ZM2562.34 951.7C2558.8 949.732 2555.16 947.574 2551.41 945.212 2551.45 949.329 2554.82 952.639 2558.93 952.639 2560.19 952.639 2561.31 952.251 2562.34 951.7ZM2566.42 945.119C2566.42 940.961 2563.04 937.581 2558.93 937.581 2555.89 937.581 2553.27 939.406 2552.08 942.009 2553.42 942.853 2554.73 943.657 2556.03 944.448 2555.97 944.662 2555.88 944.877 2555.88 945.117 2555.88 946.766 2557.22 948.107 2558.93 948.107 2559.69 948.107 2560.36 947.8 2560.9 947.328 2562.21 948.081 2563.53 948.832 2564.8 949.54 2565.75 948.283 2566.42 946.808 2566.42 945.117ZM2540.93 911.627C2540.02 913.262 2539.17 914.497 2538.57 914.99 2537.51 915.797 2533.63 920.434 2529.19 926.055 2532.17 928.305 2535.13 930.491 2538.02 932.559 2539.13 925.917 2540.11 918.905 2540.93 911.627ZM2474.35 950.55C2476.01 957.765 2477.86 964.358 2479.86 970.271 2483.13 965.268 2485.92 959.785 2488.09 953.712 2485.44 942.075 2479.76 946.354 2474.36 945.721 2474.52 946.995 2474.5 948.726 2474.35 950.55ZM2472.8 943.416C2473.42 943.564 2474.05 943.672 2474.74 943.672 2479.1 943.672 2482.59 940.36 2482.59 936.284 2482.59 933.762 2481.26 931.563 2479.25 930.237 2476.59 932.209 2473.95 934.114 2471.37 935.95 2471.82 938.485 2472.29 940.979 2472.8 943.42ZM2467.37 938.695C2467.78 939.797 2468.41 940.773 2469.29 941.579 2469.04 940.344 2468.8 939.14 2468.56 937.892 2468.16 938.174 2467.77 938.414 2467.37 938.695ZM2452.53 888.749C2454.36 888.938 2456.24 889.084 2458.11 889.258 2458.8 889.177 2459.33 889.098 2459.47 889.072 2459.99 889.018 2461.48 887.852 2462.47 886.445 2462.4 885.343 2462.36 884.203 2462.3 883.093 2457.15 881.857 2455.26 883.548 2451.37 882.929 2449.75 886.349 2450.75 888 2452.53 888.749ZM2447.74 853.66C2438.55 864.427 2430.32 874.887 2423.24 884.886 2424.55 885.113 2425.93 885.315 2427.26 885.517 2431.06 878.881 2433.9 873.785 2434.42 872.591 2438.02 865.62 2442.57 863.742 2442.57 863.742 2442.57 863.742 2447.61 860.888 2451.66 858.003 2450.39 856.556 2449.01 855.094 2447.74 853.66ZM2462.65 812.763C2448.56 813.849 2435.31 815.458 2423.24 817.552 2430.32 827.515 2438.55 838.039 2447.74 848.795 2452.2 843.684 2456.79 838.6 2461.59 833.454 2461.79 826.415 2462.19 819.495 2462.64 812.763ZM2461.36 854.949C2461.35 853.703 2461.32 852.468 2461.32 851.21 2461.32 846.85 2461.39 842.547 2461.49 838.257 2457.44 842.6 2453.58 846.904 2449.85 851.21 2451.25 852.817 2452.76 854.452 2454.2 856.065 2454.74 855.62 2455.22 855.19 2455.6 854.775 2457.71 852.547 2459.82 853.434 2461.36 854.951ZM2460.71 880.622 2462.18 880.568C2462.1 879.214 2462.03 877.847 2461.96 876.468 2461.29 878.961 2460.7 880.622 2460.7 880.622ZM2461.47 862.682C2461.35 862.068 2461.26 861.463 2461.04 860.832 2460 859.265 2458.34 858.995 2457.13 859.331 2458.59 860.954 2459.99 862.565 2461.5 864.199 2461.49 863.69 2461.49 863.181 2461.47 862.682ZM2461.24 868.611C2459.21 866.411 2457.34 864.267 2455.37 862.107 2454.81 864.373 2453.66 864.828 2452.31 866.425 2450.36 866.559 2449.15 867.816 2449.19 869.359 2449.24 871.423 2444.35 875.582 2443.46 884.996 2443.93 888.734 2448.28 887.632 2448.28 887.632 2447.19 884.243 2449.12 879.723 2451.37 880.488 2453.58 881.187 2456.36 879.109 2458.77 880.366 2458.29 876.627 2460.28 872.727 2461.24 868.611ZM2465.31 880.462 2472.46 880.235C2469.91 877.636 2467.39 875.031 2464.88 872.499 2465 875.206 2465.17 877.809 2465.31 880.462ZM2543.8 874.47C2543.83 873.799 2543.88 873.17 2543.91 872.499 2543.4 873.02 2542.86 873.571 2542.35 874.092 2542.86 874.212 2543.34 874.32 2543.8 874.47ZM2519.88 900.254C2519.88 900.254 2522.18 898.286 2523.51 894.058 2523.02 894.074 2522.58 894.112 2522.11 894.126 2520.86 895.32 2519.61 896.38 2518.35 897.532 2519.3 899.192 2519.88 900.252 2519.88 900.252ZM2494.26 920.957C2498.45 930.946 2498.37 947.52 2503.47 949.706 2508.55 951.85 2510.48 951.367 2511.38 944.258 2512.8 939.002 2519.4 933.601 2525.14 926.871 2521.97 924.458 2518.77 921.939 2515.55 919.324 2514.73 922.246 2513.43 925.073 2512.12 925.664 2511.44 923.56 2510.85 918.959 2510.45 915.124 2509.47 914.307 2508.49 913.477 2507.49 912.645 2506.65 913.409 2505.58 913.864 2503.88 913.623 2503.8 916.747 2504.79 936.284 2504.79 936.284L2499.47 916.975C2499.47 916.975 2498.92 921.574 2494.26 920.959ZM2503.22 911.032C2504.09 911.181 2504.81 911.1 2505.42 910.888 2505.08 910.593 2504.75 910.321 2504.41 910.03 2504.02 910.379 2503.61 910.687 2503.22 911.032ZM2467.05 904.089C2468.47 904.131 2469.98 904.077 2471.58 903.834 2472.17 902.4 2472.69 899.128 2472.69 899.128 2472.69 899.128 2472.84 900.456 2473.04 903.834 2473.16 906.89 2488.08 915.888 2490.64 917.417 2492.52 915.888 2494.41 914.332 2496.32 912.748 2496.28 912.563 2496.31 912.441 2496.27 912.251 2493.74 905.376 2479.2 896.296 2466.14 894.046 2466.42 897.438 2466.71 900.787 2467.05 904.087ZM2462.6 888.774C2462.29 889.03 2461.94 889.299 2461.56 889.565 2461.92 889.581 2462.27 889.623 2462.65 889.649 2462.62 889.367 2462.62 889.072 2462.59 888.774ZM2465.46 882.997C2465.58 885.289 2465.66 887.632 2465.82 889.862 2471.47 890.265 2477.29 890.561 2483.21 890.788 2480.24 887.972 2477.29 885.049 2474.32 882.099 2470.45 882.165 2466.69 882.608 2465.46 882.997ZM2479.08 882.313C2481.78 884.979 2484.48 887.648 2487.16 890.222 2487.99 889.365 2489.19 888.772 2491.09 889.002 2484.58 886.201 2480.5 884.271 2480.11 882.421 2479.8 882.366 2479.44 882.341 2479.08 882.315ZM2513.9 894.274C2512.06 894.3 2510.21 894.328 2508.36 894.328L2509.85 900.991C2511.61 899.41 2513.37 897.839 2515.13 896.216 2514.74 895.615 2514.34 894.959 2513.9 894.274ZM2517.34 894.232C2517.03 894.232 2516.73 894.232 2516.4 894.232 2516.53 894.406 2516.63 894.593 2516.74 894.767 2516.93 894.581 2517.13 894.406 2517.34 894.232ZM2504.42 905.912C2505.31 905.105 2506.26 904.235 2507.16 903.419 2505.38 900.241 2499.51 896.296 2496.01 894.284 2494.5 894.258 2492.95 894.258 2491.47 894.232 2495.8 898.24 2500.09 902.155 2504.41 905.912ZM2502.01 907.95C2497.7 904.237 2493.4 900.306 2489.1 896.322 2492.01 902.131 2497.39 907.518 2500.05 909.599 2500.7 909.047 2501.35 908.527 2502.01 907.95ZM2509.39 910.123C2509.61 910.295 2509.8 910.469 2510.01 910.645 2509.95 910.068 2509.9 909.615 2509.88 909.345 2509.7 909.6 2509.55 909.87 2509.39 910.123ZM2507.75 907.105C2507.43 907.371 2507.12 907.682 2506.83 907.95 2507.04 908.151 2507.27 908.325 2507.48 908.513 2507.62 908.084 2507.71 907.614 2507.75 907.105ZM2516.8 898.937C2515.88 899.785 2514.96 900.602 2514.05 901.434L2517.74 900.508C2517.74 900.508 2517.39 899.903 2516.81 898.939ZM2543.64 877.47C2542.61 876.36 2541.05 875.969 2540.94 877.242 2540.71 879.899 2524.93 890.986 2528.5 890.613 2530.54 890.423 2531.78 890.183 2532.51 890.423 2533.93 890.357 2535.32 890.275 2536.73 890.196 2539 887.946 2541.86 884.54 2543.39 882.273 2543.48 880.664 2543.58 879.083 2543.65 877.472ZM2479.44 868.621C2488.46 879.107 2491.53 871.531 2491.91 870.833 2488.58 869.479 2488.11 866.771 2484.51 865.243 2483.04 864.788 2478.33 864.612 2479.44 868.623ZM2477.99 871.623C2477.99 871.623 2483.36 886.778 2493.14 882.125 2494.73 882.057 2497.6 882.928 2499.6 882.125 2500.73 886.333 2503.26 889.339 2505.28 891.202 2507.5 891.202 2509.66 891.148 2511.86 891.108 2507.7 884.778 2502.13 877.045 2498 873.973 2497.57 873.422 2495.84 870.833 2493.61 872.615 2491.91 873.41 2488.46 879.871 2480.11 871.623 2478.91 869.83 2478 871.623 2478 871.623ZM2444.98 897.555C2447.6 898.159 2457.87 897.204 2457.13 893.465 2454.77 892.729 2453.2 892.124 2450.42 892.14 2448.28 893.064 2443.8 895.785 2444.98 897.555ZM2444.98 899.338C2444.98 899.338 2446.02 902.101 2447.5 902.798 2449.57 903.442 2454.84 904.636 2457.71 901.927 2458.18 902.249 2460.5 903.269 2463.84 903.804 2463.5 900.468 2463.22 897.072 2462.94 893.625 2461.44 893.493 2459.97 893.453 2458.55 893.545 2460.07 900.45 2444.98 899.336 2444.98 899.336ZM2474.74 928.89C2473.14 928.89 2471.65 929.345 2470.41 930.125 2470.54 930.932 2470.64 931.76 2470.78 932.555 2472.39 931.413 2474.02 930.179 2475.65 928.986 2475.36 928.947 2475.05 928.891 2474.74 928.891ZM2478.06 927.229C2478.68 926.762 2479.32 926.279 2479.94 925.796 2480.63 919.266 2474.04 916.302 2474.04 916.302 2474.04 916.302 2472.55 918.152 2470.17 916.971 2469.69 917.374 2469.17 917.671 2468.66 918.017 2469.1 921.422 2469.57 924.774 2470.08 928.036 2472.49 926.734 2475.33 926.37 2478.06 927.231ZM2467.73 933.036C2467.39 933.705 2467.16 934.415 2467.02 935.18 2467.34 934.966 2467.65 934.764 2467.96 934.549 2467.88 934.056 2467.81 933.531 2467.73 933.036ZM2531.61 893.641C2529.96 893.721 2528.34 893.827 2526.65 893.897 2526.53 894.422 2524.25 904.193 2514.81 904.193 2512.24 905.694 2514.64 909.692 2516.39 910.281 2518.15 910.884 2519.67 911.459 2519.67 911.459 2519.67 911.459 2517.22 911.635 2515.96 912.451 2516.37 913.044 2516.39 914.318 2516.23 915.831 2519.9 918.837 2523.54 921.708 2527.11 924.44 2530.17 920.498 2532.73 916.112 2533.74 911.03 2541.44 894.994 2532.07 902.103 2532.07 902.103 2532.07 902.103 2531.51 899.276 2532.69 895.388 2532.47 894.529 2532.07 894.02 2531.61 893.643ZM2546.87 875.621C2546.93 875.65 2547.03 875.701 2547.03 875.701 2547.03 875.701 2546.38 884.135 2546.69 889.603 2560.57 888.491 2573.65 886.924 2585.52 884.882 2578.47 874.883 2570.24 864.423 2561.03 853.656 2556.62 858.726 2552 863.834 2547.19 868.98 2547.12 871.234 2546.96 873.392 2546.87 875.62ZM2561.03 848.793C2570.24 838.037 2578.47 827.513 2585.52 817.55 2573.49 815.456 2560.24 813.847 2546.16 812.762 2546.63 819.493 2546.96 826.415 2547.19 833.452 2552 838.598 2556.62 843.68 2561.03 848.793ZM2547.51 851.206C2547.51 855.604 2547.39 859.905 2547.31 864.197 2551.32 859.864 2555.21 855.494 2558.93 851.206 2555.21 846.9 2551.32 842.596 2547.31 838.237 2547.39 842.517 2547.51 846.846 2547.51 851.206ZM2534.88 820.674C2537.93 823.771 2540.94 826.855 2543.91 829.953 2543.67 824.054 2543.37 818.219 2542.97 812.534 2537.29 812.172 2531.51 811.837 2525.59 811.61 2528.7 814.586 2531.78 817.578 2534.88 820.674ZM2504.41 808.017C2508.75 808.017 2513.07 808.096 2517.34 808.216 2512.99 804.156 2508.67 800.265 2504.41 796.55 2500.09 800.264 2495.8 804.156 2491.47 808.216 2495.72 808.098 2500.03 808.017 2504.41 808.017ZM2473.94 820.674C2477.03 817.578 2480.1 814.586 2483.21 811.61 2477.28 811.837 2471.47 812.135 2465.82 812.534 2465.43 818.219 2465.11 824.012 2464.88 829.953 2467.87 826.855 2470.88 823.772 2473.94 820.674ZM2464.76 834.752C2464.57 840.155 2464.49 845.667 2464.49 851.206 2464.49 856.756 2464.57 862.265 2464.76 867.645 2467.69 870.833 2470.79 873.973 2473.93 877.125L2474.92 867.683C2474.92 867.683 2478.16 862.828 2483.85 863.217 2489.48 863.594 2492.73 868.569 2492.73 868.569 2492.73 868.569 2496.04 870.07 2497.61 870.797 2503.21 874.24 2509.88 883.774 2514.47 891.082 2516.59 891.044 2518.72 891.044 2520.84 890.988 2522.54 889.369 2524.27 887.635 2525.98 885.974 2530.06 877.418 2534.94 875.462 2536.79 874.364 2537.13 874.188 2537.54 874.083 2537.94 873.987 2539.97 871.897 2542.06 869.791 2544.04 867.685 2544.21 862.269 2544.29 856.757 2544.29 851.208 2544.29 845.671 2544.21 840.159 2544.04 834.753 2540.35 830.813 2536.52 826.857 2532.62 822.926 2528.69 819.025 2524.75 815.193 2520.84 811.45 2515.4 811.302 2509.95 811.207 2504.41 811.207 2498.85 811.207 2493.38 811.3 2487.94 811.45 2484.05 815.191 2480.1 819.025 2476.17 822.926 2472.26 826.855 2468.41 830.813 2464.76 834.753ZM2406.33 961.541C2418.87 962.773 2439.97 953.563 2464.81 936.681 2464.83 934.12 2465.7 931.842 2467.25 930.139 2466.7 926.76 2466.19 923.298 2465.71 919.759 2458.23 923.498 2449.19 923.233 2442.19 919.154 2440.53 918.725 2441.04 916.3 2441.04 916.3 2441.04 916.3 2449.27 910.71 2447.24 904.646 2441.56 903.48 2441.71 893.168 2447.24 891.667 2444.78 891.184 2441.86 890.637 2439.69 891.667 2424.04 923.889 2425.36 929.115 2414.59 935.862 2408.4 939.134 2406.33 955.319 2406.33 961.539ZM2537.43 935.942C2534.1 933.583 2530.7 931.073 2527.26 928.49 2520.76 936.815 2513.75 946.334 2512.79 948.869 2511.71 951.724 2498.25 971.488 2486.98 987.067 2492.25 996.752 2498.15 1002.22 2504.41 1002.22 2518.12 1002.22 2530.26 975.954 2537.43 935.944ZM2216.97 1261.94C2203.51 1248.11 2194.07 1249.8 2180.02 1262.82 2177.87 1276.34 2194.66 1296.01 2194.66 1307.47 2197.99 1314.34 2200.77 1313.85 2204.25 1307.47 2203.13 1302.16 2222.7 1267.86 2216.97 1261.94ZM2214.35 1291.03C2212.13 1296.08 2209.92 1301.21 2207.85 1306.2 2206.12 1311.57 2203.58 1314.86 2200.85 1315.75L2200.85 1360.2C2202.28 1358.57 2205.56 1355.93 2212.57 1354.88 2235.38 1353.34 2292.9 1365.84 2330.68 1357.88 2328.47 1354.41 2297.11 1299.46 2293.93 1294.76 2270.77 1298.35 2228.66 1286.56 2214.35 1291.03ZM2331.78 1361.22C2283.36 1372.44 2210.26 1349.38 2203.13 1362.89 2210.15 1365.62 2213.31 1371.08 2214.61 1374.15L2343.35 1375.3C2340.62 1371.99 2332.58 1362.21 2331.78 1361.22ZM2056.42 1375.31 2185.19 1374.19C2186.47 1371.13 2189.64 1365.64 2196.67 1362.89 2189.55 1349.38 2113.42 1373.51 2064.59 1365.15 2063.79 1366.13 2058.48 1372.74 2056.42 1375.32ZM2066.83 1362.05C2104.58 1370.02 2163.74 1353.34 2186.58 1354.88 2193.42 1355.9 2196.69 1358.43 2198.16 1360.08L2198.16 1315.82C2195.49 1315.11 2192.88 1312.03 2190.95 1306.2 2190.31 1303.6 2187.93 1297.96 2184.68 1291 2170.3 1286.83 2129.96 1301.78 2106.9 1298.17 2103.7 1302.9 2068.97 1358.58 2066.83 1362.06ZM1777.83 802.998C1765.81 780.661 1774.48 759.583 1764.95 737.835 1777.83 755.253 1799.67 752.129 1799.67 752.129 1799.67 752.129 1798.88 738.519 1776.51 727.618 1807.55 721.129 1817.12 730.97 1820.14 735.182 1837.27 733.505 1850.85 741.43 1850.85 741.43 1850.85 741.43 1859.63 734.202 1835.71 723.125 1878.35 716.126 1871.98 760.599 1902.91 781.102 1908.14 784.617 1981.59 811.66 1959.33 883.047 1981.38 914.302 1987.5 944.873 1987.5 944.873 1987.5 944.873 1987.29 959.779 1994.61 970.253 2001.96 980.788 2087.41 1130.01 2125.91 1163.45 2135.54 1172.61 2145.53 1172.37 2145.53 1172.37L2178.92 1172.37 2176.69 1159.86 2173.57 1155.41C2173.57 1155.41 2170.24 1142.7 2173.57 1139.36 2183.15 1094.08 2219.86 1113.94 2221.18 1139.36 2225.41 1144.27 2221.18 1154.54 2221.18 1154.54L2217.65 1159.42 2216.97 1172.14C2216.97 1172.14 2237.9 1171.7 2241.21 1171.94 2252.61 1171.94 2257.81 1168.68 2262.82 1165.8 2289.24 1150.74 2396.59 965.859 2396.59 965.859 2396.59 965.859 2396.61 964.959 2396.69 963.483 2395.79 962.947 2394.96 962.344 2394.23 961.621 2383.7 951.028 2393.81 922.201 2417.89 887.121 2416.95 886.95 2416.06 886.76 2415.12 886.574 2414.12 891.04 2410.17 894.378 2405.38 894.378 2399.84 894.378 2395.42 889.884 2395.42 884.337 2395.42 883.572 2395.51 882.846 2395.68 882.125 2366.65 874.28 2348.59 863.327 2348.59 851.206 2348.59 836.243 2376.12 823.046 2417.89 815.297 2393.81 780.182 2383.7 751.381 2394.23 740.803 2404.78 730.237 2433.53 740.4 2468.56 764.52 2476.32 722.674 2489.45 695.094 2504.41 695.094 2515.25 695.094 2525.13 709.682 2532.72 733.683 2537.47 734.473 2541.1 738.547 2541.1 743.508 2541.1 746.62 2539.68 749.359 2537.47 751.205 2538.46 755.469 2539.4 759.894 2540.27 764.52 2575.24 740.4 2603.99 730.237 2614.52 740.803 2625.11 751.381 2614.93 780.184 2590.89 815.297 2632.67 823.046 2660.18 836.243 2660.18 851.206 2660.18 866.181 2632.67 879.388 2590.89 887.124 2614.93 922.201 2625.11 951.029 2614.52 961.623 2606.6 969.574 2588.33 965.777 2564.87 953.119 2563.21 954.365 2561.16 955.146 2558.93 955.146 2553.37 955.146 2548.88 950.668 2548.88 945.115 2548.88 944.62 2548.96 944.165 2549.03 943.708 2546.15 941.857 2543.24 939.938 2540.27 937.889 2532.47 979.763 2519.34 1007.37 2504.41 1007.37 2497.32 1007.37 2490.66 1001.11 2484.76 990.125 2478.95 998.05 2474.04 1004.43 2472.26 1005.98 2444.6 1029.05 2443.53 1035.74 2440.21 1041.67 2389.61 1141.01 2299.46 1184.94 2293.77 1187.99 2246.99 1213.05 2236.12 1243.97 2236.12 1243.97 2236.12 1243.97 2225.92 1264.93 2215.69 1288.03 2237.52 1283.3 2274.08 1295.88 2295.6 1291.28 2298.84 1296.85 2334.73 1358.55 2335.68 1358.8 2336.62 1359.06 2350 1375.34 2350 1375.34L2350 1375.35 2351.82 1375.37C2353.69 1375.37 2355.24 1376.9 2355.24 1378.79 2355.24 1380.68 2353.69 1382.25 2351.82 1382.25L2215.9 1381.05C2215.98 1383.52 2215.35 1387.5 2209.31 1387.5 2203.26 1387.5 2197.19 1387.64 2190.54 1387.5 2183.85 1387.39 2183.9 1382.86 2184.06 1381.03L2050.5 1382.25C2048.6 1382.25 2047.08 1380.68 2047.08 1378.79 2047.08 1376.89 2048.6 1375.37 2050.5 1375.37L2052.23 1375.35 2052.23 1375.34 2064.54 1359.28C2064.54 1359.28 2100.44 1299.29 2103.64 1293.71 2128.9 1299.59 2160.04 1285.74 2182.63 1286.66 2174 1268.64 2161.18 1244.63 2156.03 1238.05 2146.72 1225.57 2142.41 1215.77 2109.46 1194.68 2034.25 1162.79 1980.48 1107.23 1935.86 1024.26 1932.73 1013.21 1898.35 1001.18 1887.44 967.61 1877.66 961.362 1856.19 935.014 1856.19 935.014 1856.19 935.014 1802.54 923.885 1807.23 860.997 1749.14 857.301 1776.84 814.484 1777.83 802.994ZM1968.36 980.174 1966.5 965.656 1959.85 965.921 1965.79 981.016 1968.36 980.174ZM1958.83 985.08 1949.06 973.177 1945.52 978.313 1957.07 986.921 1958.83 985.08ZM1978.27 973.898C1978.27 973.642 1978.54 967.787 1974.85 968.885 1974.73 970.253 1974.06 979.128 1974.06 979.128L1976.94 979.154C1976.94 979.154 1976.84 975.335 1978.27 973.898ZM1972.41 979.25 1973.03 967.758 1968.58 966.029 1970.07 979.709 1972.41 979.251ZM1964.06 981.785 1958.1 966.873 1950.48 971.59 1960.61 983.631 1964.06 981.785ZM2476.65 936.274C2476.65 935.256 2475.82 934.423 2474.74 934.423 2473.69 934.423 2472.84 935.256 2472.84 936.274 2472.84 937.266 2473.69 938.056 2474.74 938.056 2475.82 938.056 2476.65 937.266 2476.65 936.274ZM1955.78 988.312 1954.67 990.51 1943.03 985.482 1944.49 980.441 1955.78 988.312Z" fill-rule="evenodd"/></g></svg>